<?xml version="1.0" encoding="UTF-8"?><svg id="Layer_0_Image" data-name="Layer 0 Image" xmlns="http://www.w3.org/2000/svg" viewBox="0 0 800 600" x="0px" y="0px" width="800px" height="600px" fill="white" version="1.1" xmlns:xlink="http://www.w3.org/1999/xlink"><title>1</title><path d="M531.87,340.2c-.312.4-.415.474-.411.539.262,4.212-.4,8.377-.682,12.673-.112.2-.413.065-.812.134-.42.755.19,1.881-.662,2.642-.2.176,0,.774.252,1.213a1.769,1.769,0,0,1-.538,2.576c-.61-.038,0-.839-.58-.932-1,.839.257,1.482.288,2.159-.055.779-.837.252-1.034.695.108.485.541.272.815.4.616,3.754.22,3.224-.861,6.6.307,1.163,1.441.811,2.361,1.26-1.833.609.347,2.059-.985,2.9-.661-.285-1-1.171-1.9-1.536.079.836-.376,1.621.37,2.3a1.924,1.924,0,0,1,.248,2.809c-.2.311-.089.833-.117,1.219l1.068.385c-.129.141-.222.338-.335.35-.533.056-1.173-.111-1.578.131s-1.342.741-.537,1.43c.574.492-.78,1.068.208,1.445.107.041-.493.208-.786.336-.44.532.912.93.149,1.493a.785.785,0,0,0-.345.939c.881,2.121-.212,3.55-1.642,4.882-.045.042.014.181-.011.264-.049.16-.123.313-.228.571l-.871-1.678c.2-1.176,1.537-.866,2.015-1.759a4.088,4.088,0,0,0-1.118-1.978c-1.205.185-.4,1.249-.78,1.872a2.9,2.9,0,0,0-.69,2.178,14.938,14.938,0,0,1,.04,2.905,2.65,2.65,0,0,0-2.728,1.589c.008,1.075,1.055,1,1.617,1.465-.459.813-1.938.178-2.936-1.295-1.951.97-.016,2.3-.317,3.43-.336.752-1.238-.03-1.621.6-.168,1.2,1.008,1.171,1.46,1.589-.249.757.069,1.562-.4,2.127.162.643,1.444.142,1.1,1.209-.532.6-.916.2-1.3-.222-1.041.463-.876,1.91-1.956,2.311a1.994,1.994,0,0,0,1.677,1.04c-.761,1.378,1.711,2.864-.333,4.222-.462-.249-.034-1.466-1.266-.967-.491.835.687,1.413.544,2.354a12.6,12.6,0,0,1-.843,2.4c-.442-.134-.692-1.02-1.326-.323a.727.727,0,0,0,.189.937,1.028,1.028,0,0,1,.1,1.44c-1.122.973-1.224,2.425-1.9,3.6-.565.986-.554,2.414-2.089,2.648-.094.015-.219.291-.209.437.066.942-.722,1.554-.906,2.349-.2.865-1.056,1.2-1.266,1.935-.269.95-1.586,1.347-1.558,2.039.045,1.112-1.618.594-1.237,1.668-.937.188-1.453.945-2.112,1.561v2.12a1.87,1.87,0,0,1-2.416.35c-.675.549-.131,1.345-.416,2.031l-1,.364v1.753l-1.07.437c-.277.848,1.245,1.462.269,2.442-.262.13-.249-.341-.672-.315.071.762-.913,1.425-.227,2.446-.864.374-2.115-.344-2.657,1.179v2.429c-1.768.924-3.009,2.591-4.9,3.272.159.462.591.266.968.472-.007.709-1.157.829-.985,1.592.2.9-.554.858-.987,1.205a4.31,4.31,0,0,1-1.737,1.119v1.06a.66.66,0,0,1-.678.351,7.509,7.509,0,0,0-.757.042c-.453.608-.038,1.268-.411,2.145-.339.5-1.7.59-1.573,1.973.022.249-.882.311-1.273.749-1.139,1.275-2.592,2.234-3.632,3.632a5.387,5.387,0,0,1-2.046,1.6c-.776.373-.951,1.407-1.507,2.091-.534.656-1.721.512-1.8,1.648-.028.4-.671.162-.875.4-.461.553-1.211.618-1.6,1.46-.59,1.259-2.3,1.554-3.176,2.728a6.516,6.516,0,0,1-2.889,2.218c-.979.371-.906,1.914-2.205,1.807-1.026,1.383-2.693,2.02-3.819,3.281A3.523,3.523,0,0,1,456.785,483c-.454.123-.56,1.394-1.349.411-.535.686-.79,1.633-1.889,1.788-.227.032-.047.681-.654.916-1.261.489-2.157,1.66-3.473,2.147a3.587,3.587,0,0,0-1.092.571c-1.891,2.3-4.822,3.021-7.053,4.776-.213.168-.355.449-.586.565-1.731.864-3.7,1.282-5.213,2.535a17.07,17.07,0,0,1-4.925,2.606c-.989.379-1.578,1.305-2.617,1.476a5.112,5.112,0,0,0-2.755,1.805l-.957-.667c-.477,1.6-1.941,2.089-3.234,2.61a12.9,12.9,0,0,0-1.361.654,46.287,46.287,0,0,1-8.8,3.791,5.549,5.549,0,0,0-.87.53,8.161,8.161,0,0,1-4.73,1.121c-1.334-.127-5.29,1.076-6.85,1.863-3.083,1.555-6.136,3.173-9.263,4.633-2.2,1.029-4.5,1.863-6.769,2.744a47.8,47.8,0,0,0-7.186,3.19c-1.063-1.095-2.155-.116-3.277.076-1.294.22-1.049,2-2.307,2.175-.848.494-1.233-.644-1.949-.538-.678.34-.167,1-.449,1.478-.416.364-.776.206-1.144-.278-.084-.142-.2-.121-.343.113a3.676,3.676,0,0,1-2.155,1.363,3.382,3.382,0,0,0-1.611.749c-.685.714-1.4.549-2.049-.122-.864.9-1.612,1.8-3.15,1.71-.656-.041-1.19,1.305-2.269,1a1.372,1.372,0,0,1-1.675.52c-1.094-.318-.511,1.069-1.412,1.173-2.451.284-4.776,1.217-7.217,1.682-1.286.245-2.773.023-3.949.965-.386.309-.714-.313-1.08-.468l-1.029,1.029c-.805-.118-1.741.366-2.5-.328-.359-.326-.417.041-.588.15-1.849,1.183-4.045,1.215-6.048,1.868-1.479.482-3.106.063-4.385.594-2.118.878-4.435-.255-6.4,1-1.734-.264-3.506.418-5.263-.477-.794-.4-1.974.018-2.963-.084-3.577-.37-7.135-.943-10.3-2.747-1.471-.838-2.857-1.983-4.452-2.4-1.749-.461-3.167-1.547-4.915-2.022-1.409-.382-2.589-1.62-3.861-2.492-2.1-1.443-4.15-2.963-6.734-3.517a3.838,3.838,0,0,1-1.121-.55c-1.348-.9-2.937-1.372-4.258-2.195a21.477,21.477,0,0,1-4.106-2.618c-1.453-1.451-3.58-2.087-4.56-4.166-.509-1.082-1.789-1.774-2.509-2.792a9.73,9.73,0,0,0-2.19-2.606,6.569,6.569,0,0,1-1.183-1.666c-1.216-1.717-3.048-2.822-4.394-4.408-.686-.81-1.5-1.487-2.158-2.35-.576-.755-1.586-1.276-2.238-2.056-3.28-3.924-6.967-7.551-9.142-12.3-.325-.707-1.392-.737-1.55-1.213-.222-.667-.716-.985-1.043-1.485-1.682-2.572-3.415-5.117-4.965-7.767-.34-.583-.986-1.3-.628-2.187.254-.63-.346-1.046-.591-1.374a10.156,10.156,0,0,1-1.611-5.081,16.279,16.279,0,0,0-.693-2.434l.086-2.473c.631-1.544-.429-2.824-1.1-3.809-.978-1.423-1.677-2.974-2.545-4.433-.948-1.593-1.841-3.245-2.665-4.895-1.007-2.019-1.955-4.1-2.814-6.19a92.377,92.377,0,0,1-4.027-11.424c-.561-2.113-1.318-4.176-2.041-6.242a33.812,33.812,0,0,1-2.178-7.278c-1.141-.753-.186-2.019-.737-2.972a11.834,11.834,0,0,1-.89-2.625c-.65-2.217-.912-4.521-1.5-6.749-.113-.43.156-.418.259-.582a1.29,1.29,0,0,0,.068-1.273c-.326-.585-1.383-.91-.472-1.811a10.812,10.812,0,0,1-.6-2.211c-.885-2.816.016-5.947-1.578-8.614a.487.487,0,0,1,0-.269c.389-3.5-.86-6.908-.589-10.412.042-.544.68-1,.405-1.313-.515-.582-.343-1.184-.345-1.777a1.878,1.878,0,0,0-.543-1.429c-.43-.454.742-.784.269-1.277s-.273-1.016-.278-1.525c-.024-2.454.075-4.912-.057-7.359-.047-.868.752-1.625.193-2.49.814-.748.308-1.706.379-2.563.083-.993-.272-2.123.091-2.967a6.363,6.363,0,0,0,.442-3.346c-.137-1.2.839-2.138.586-3.325-.1-.455.267-.812.381-1.194a35.225,35.225,0,0,0,1.218-5.22,44.131,44.131,0,0,1,2.519-8.783,34.294,34.294,0,0,1,2.451-5.522,83.352,83.352,0,0,1,6.349-9.934c1.422-1.828,2.836-3.684,4.152-5.611a57.056,57.056,0,0,1,4.918-5.568c1.364-1.519,3.086-2.707,4.075-4.58a2.25,2.25,0,0,1,1.76-1.148l-.569-.68c.876-.53,1.24-1.623,2.431-1.907.918-.22.843-1.464,1.549-2.042,1.924-1.574,3.1-3.969,5.519-5.008a4.14,4.14,0,0,1,2.49-2.433c.023-1.4,1.606-.685,1.941-1.666.392-.218-.182-.177-.049-.6.965-.354,1.57-1.474,2.536-2.092.993-.634,1.624-1.649,2.923-2.052,1.076-.333,1.836-1.684,2.832-2.68h1.752l.151-1.365c1.179-.716,2.65-.728,3.619-1.916.81-.993,2.3-1.077,3.224-2.108a7.415,7.415,0,0,1,2.6-1.548,4.57,4.57,0,0,1,1.646-.034,11.177,11.177,0,0,1,6.554-3.867c2.09-1.815,5.035-2.1,7.09-3.894.682-.6,1.44-.453,2.134-.851,3.224-1.849,6.553-3.506,9.748-5.424,2.52-1.512,5.219-2.738,7.884-3.994a20.4,20.4,0,0,0,4.51-2.96c2.91-2.463,5.762-4.99,8.635-7.493,2.942-2.563,5.824-5.2,8.806-7.707,4.507-3.787,8.418-8.152,12.631-12.219,2.841-2.741,5.333-5.82,8.055-8.683,2.491-2.621,4.769-5.467,7.156-8.2,3.1-3.556,6.016-7.284,8.886-11.034,3.239-4.231,6.2-8.665,9.1-13.133,2.727-4.2,5.136-8.6,7.778-12.844,2.344-3.765,4.782-7.5,7.227-11.207,1.781-2.7,3.418-5.5,5.2-8.2,2.279-3.449,4.6-6.872,7.135-10.142,1.06-1.365,1.926-2.867,3.023-4.226a10.836,10.836,0,0,1,1.645-1.991c.7-.527.759-1.352,1.293-1.957,1.92-2.177,3.6-4.546,5.563-6.709,2.192-2.41,4.172-5.026,6.425-7.4.6-.631,1.464-1.062,2-1.627.621-.655.948-1.542,1.923-1.951.727-.305.538-1.588,1.734-1.7.384-.034.714-1.057,1.154-1.6,1.2-1.475,2.963-2.264,4.247-3.631a36.846,36.846,0,0,1,4.066-4.023c2.372-1.844,4.5-3.978,6.879-5.779,2.271-1.715,4.209-3.954,6.914-4.993.731-.281.189-1.364,1.11-1.163,3.814-2.642,7.61-5.31,11.45-7.914,1.61-1.092,3.427-1.863,5.125-2.8,2.2-1.213,4.258-2.75,6.679-3.592,2.939-1.022,5.4-3.166,8.557-3.7.9-1.336,2.687-1.054,3.79-2.058.432-.394.806.006,1.081.317a28.608,28.608,0,0,1,6.759-3.331c3.031-.985,5.924-2.391,8.947-3.4a131.114,131.114,0,0,1,14.117-4.14c1.941-.414,3.844-.844,5.822-1.114,1.829-.25,3.626-.931,5.5-1.149.229-.027.458-.406.646-.374,2.162.364,4.179-.945,6.319-.555,1.637.3,3.06-.741,4.688-.589a12.978,12.978,0,0,0,4.613-.038c3.3-.941,6.618-.53,9.877-.357,2.091.11,4.241.162,6.317.478a45.522,45.522,0,0,1,9.717,2.185,47.031,47.031,0,0,1,12,6.648,30.926,30.926,0,0,1,6.661,7.884,29.709,29.709,0,0,1,2.953,6.408c.583,1.621.847,3.476,1.3,5.2.656,2.485.843,5.048,1.528,7.532a22.713,22.713,0,0,1,.518,4.4,185.932,185.932,0,0,1,.668,18.857c-.037,1.159-.832,2.1-.615,3.325a6.658,6.658,0,0,1-.028,3.241c-.5,1.4-.184,2.834-.548,4.142a40.037,40.037,0,0,0-.514,4.15c-.5,2.87-1.579,5.635-1.6,8.6-2.062,4.543-2.693,9.541-4.7,14.146-1.469,3.379-2.948,6.78-4.292,10.217-1.048,2.677-2.525,5.129-3.591,7.785-.416,1.037-1.465,1.806-1.964,2.743-.478.9-.5,2.086-1.013,3.118a2.89,2.89,0,0,1-1.754,1.752c.6,1.813-1.35,2.545-1.523,4.055-.161,1.418-1.2,2.743-1.9,4.088s-1.51,2.644-2.159,4.016c-.686,1.449-1.413,2.871-2.16,4.288a38.7,38.7,0,0,0-1.674,4.212,42.142,42.142,0,0,1-2.305,3.944c-.7,1.362-.992,2.866-1.808,4.175a41.327,41.327,0,0,0-1.967,4c.611.482.617-.229.942-.207.691.751-.076,1.156-.506,1.464-.656.472-.116,1.2-.542,1.71a3.2,3.2,0,0,0-.856,1.531,6.49,6.49,0,0,1-.561,1.691c-.191.526.193,1.353-.895,1.225-.487.547-.117,1.21-.237,1.814a1.992,1.992,0,0,0-1.342,1.621c-.228-.595-.348-.909-.469-1.228a1.62,1.62,0,0,0-.762,2.429c.843,1.092.048,1.779-.195,2.431.187.8,1.471.293,1.107,1.431-1.329.3-2.77.6-2.7,2.5-1.481,1.075-1.053,2.992-1.946,4.39-.836,1.31-.814,3.07-1.771,4.441-.5.709.139,1.688-.374,2.57-.585,1-.491,2.256-1.088,3.374-.386.724-.308,1.849-.7,2.788a7.407,7.407,0,0,0-.173,2.38l-.878.191c.69,1.31-.119,2.492-.422,3.689a13.291,13.291,0,0,1-1.547,3.705,1.957,1.957,0,0,0-.148,2.2c.424.585-.538,1.21.256,1.585-1.049.656.132,2.211-1.151,2.806-.59.274-.332,1.185-.954,1.5.668.282.354,1.191.964,1.51-.741,1.863-.741,1.863-1.615,2.327.635,1.07,1,2.071-.25,3.157-.708.615.2,2.049-.665,2.9.261.244.7.653.44.864-.848.7-.153,1.812-.7,2.446-.654.765-.26,1.552-.353,2.318-.1.841.457,1.615.04,2.57-.359.825.215,1.924-.587,2.763-.4.424.776.645.25,1.291-.361.444.734,1.008-.051,1.726-.587.538-.156,1.543-.2,2.338-.044.721-.009,1.448-.009,2.175.59-.089.59-.089.791-.271.269.136.272.378.309.641.118.827-.766,1.332-.6,2.238a2.425,2.425,0,0,1-.242,2.061c-.395.519.516.922.326,1.58-.145.5-.692.747-.6,1.4.416,3.129-.945,6.157-.494,9.244-.553.446-.57-.24-.873-.257-.049.049-.173.117-.169.177.189,3.034-.922,5.981-.609,9.016.079.768-.741,1.457-.04,2.3.467.559-.832,1.249-.069,1.941-.859.721-.353,1.689-.434,2.542-.077.811-.017,1.635-.017,2.453a9.992,9.992,0,0,0,.052,2.711c.268.916-1.466,1.714-.052,2.563-.957.665-.463,1.655-.527,2.5-.076.994-.018,2-.018,3a23.134,23.134,0,0,1-.02,2.725c-.175,1.47-.777,2.9-.52,4.411.247,1.455-1,2.576-.515,3.992h-.825C531.391,350.983,532.414,345.776,531.87,340.2ZM210.035,356.316c-.316.807-1.564,1.429-.5,2.473-.891.479.117.805.114,1.223,0,.569-.649.762-.6,1.412.064.93-1.093,1.8,0,2.854.436.42-.984.957-.39,1.584s.38.953-.04,1.564c-.3.432.052,1.244-.623,1.634,1.195,1.541.269,3.312.528,4.957.117.748-.154,1.571.5,2.2a2.074,2.074,0,0,0-.3,2.678c1,.961-.216,1.789.254,2.77.429.893.293,2.171.619,3.275a8.936,8.936,0,0,1,.042,2.44,13.986,13.986,0,0,1-.042,2.718c-.143.708,1,1.342.042,2.009a4.791,4.791,0,0,1,.568,2.5,14.413,14.413,0,0,0-.016,2.45,15.216,15.216,0,0,0,.428,3.347c.342,1.294,1.022,2.654.66,4.107-.1.388.24.638.346.943a7.543,7.543,0,0,1,.675,2.96,4.86,4.86,0,0,0,.716,2.982c.73,1.1.2,2.215.693,3.286a16.147,16.147,0,0,1,1.3,4.34c.434,3.069,2.436,5.695,2.307,8.9-.022.527.954.736,1.055,1.453a35.165,35.165,0,0,0,2.572,8.055c-.05-1.083.669-2.3-.624-3.147-.47-.308-.3-.8-.318-1.229-.03-.627.173-1.381-.1-1.859-1.433-2.467-1.759-5.281-2.707-7.885-.382-1.049-.124-2.131-.565-3.03a37.57,37.57,0,0,1-2.216-6.462c-.527-1.863-.984-3.807-1.354-5.659-.384-1.924-1.063-3.949-.7-6.015.047-.265.124-.657-.012-.8-.882-.918-.559-2.053-.482-3.06.085-1.113-.649-1.963-.624-3.049a18.851,18.851,0,0,0-.4-4.158c-.44-2.214-.031-4.576-.629-6.846a81.681,81.681,0,0,1,0-4.618c.183-.787-.655-1.469-.257-2.094.573-.9-.07-1.453-.316-2.144-.11-.311.158-.487.347-.669a1.075,1.075,0,0,0,.156-1.241c-.686-.586-.51-1.305-.5-2,.012-.847-.234-1.757.474-2.474-.938-.8-.285-1.872-.483-2.8-.22-1.031.616-2.061,0-3.091C210.821,360.9,209.855,358.583,210.035,356.316ZM417.7,125.019c-.745,1.3-1.349,2.724-2.558,3.579-2.841,2.009-3.867,5.651-6.881,7.472-.243,1.882-1.876,2.868-2.862,4.245-1.4,1.959-2.643,4.035-4.118,5.92-1.335,1.706-2.432,3.536-3.629,5.319s-2.384,3.583-3.694,5.268c-1.642,2.111-2.663,4.578-4.274,6.706-1.107,1.462-2.4,2.9-2.811,4.816-.047.223-.4.365-.552.585-1.266,1.834-2.649,3.6-3.746,5.533-2.057,3.617-4.139,7.211-6.405,10.7-.286.441-1.089,1.007-.487,2.029.427-.426.975-.759,1.209-1.244,1.411-2.921,3.363-5.506,5.011-8.276,1.253-2.107,2.5-4.221,3.732-6.34,1.715-2.955,3.947-5.6,5.709-8.542,1.147-1.915,2.6-3.666,3.659-5.577,1.912-3.447,4.413-6.475,6.43-9.84,1.582-2.638,3.616-5.029,5.427-7.538a49.839,49.839,0,0,1,5.87-7.131,4.376,4.376,0,0,0,1.156-1.7c.263-.72,1.61-.4,1.5-1.511,1.44-1.091,2.119-2.841,3.471-4.006.192-.166.252-.262.047-.424A1.94,1.94,0,0,0,417.7,125.019Zm-181,216.335c-.341.382-.787.652-.782.914.027,1.5-.758,2.836-.69,4.386.152,3.447.048,6.906.048,10.36,0,2.636-.046,5.273.013,7.907a39.917,39.917,0,0,0,.447,7.7c.457,2.118.095,4.373.56,6.587s-.071,4.554.529,6.871a15.512,15.512,0,0,1,.045,5.427c-.207,1.911.747,3.611.625,5.507-.2,3.078.894,5.928,1.883,8.917.827-1.355-.309-2.31-.3-3.422a21.532,21.532,0,0,0-.426-4.43c-.429-2.13-.163-4.37-.572-6.584-.445-2.414.1-4.928-.549-7.414-.432-1.659-.023-3.465-.538-5.232a10.986,10.986,0,0,1-.038-4.335c.19-1.475-.611-2.72-.6-4.142q.058-12.27,0-24.541C236.332,344.423,237.369,343.171,236.694,341.354Zm250.028,96.887c.234.418.758.631.525,1.234-.752.535-1.19,1.533-2.183,1.836-.3.09-.557.193-.5.465.187.993-.868,1.358-1.026,2.019-.223.928-.929,1.285-1.439,1.855a4.275,4.275,0,0,1-1.641,1.264c-.511.2-.677,1.274-1,1.957-.289.62-1.118.438-1.445.954-.2.452.4,1.268-.509,1.3-.863.027-.575.774-.819,1.14-.374.563-1.362.253-1.389.989-.055,1.465-1.333,2.167-1.826,3.409-.46-.429-.838-.78-1.216-1.13-.649.728-.05,1.376.16,1.953-.782.741-1.627.5-2.619.28.9.785.518,1.652.492,2.455-.7.734-1.447,1.409-2.514,2.618,4-1.237,4.954-4.691,7.241-6.783.289.318.5.629,1.153.5.125-1.838,1.964-2.552,3.059-3.837l-.645-.735c.966-1.222,2.314-2.109,3.057-3.585.329-.653.955-1.512,1.744-1.565,1.512-.1,2.17-1.173,2.738-2.207.281-.513.586-.5.947-.644.258-.1.258-.252.023-.38-.44-.295-1.1.206-1.437-.359,0-.21-.072-.439.011-.56.618-.891,1.806-1.163,2.408-1.967.632-.845.5-2.147,1.391-2.943.067-.06.129-.128.193-.192.71.036.924,1.7,2.208.543l-2.074-2.194C488.629,436.727,488.09,438.005,486.722,438.241ZM228.051,344.347c-1.225,2.805-.951,5.747-.96,8.662-.012,4.089.14,8.184-.038,12.265-.243,5.582.616,11.11.58,16.675a2.668,2.668,0,0,0,0,.544,12.6,12.6,0,0,1,.548,2.867,29.837,29.837,0,0,1-.049,3.81c-.189,1.228.692,2.153.608,3.325a21.859,21.859,0,0,0,.008,3.812c.133,1.29-.606,2.706.505,3.877a.528.528,0,0,1-.016.513c-1.125.88-.206,1.708.019,2.57a7.2,7.2,0,0,1,.571,3.318c-.021.1.2.254.3.382a.765.765,0,0,0,.828-.4c.329-.555-.674-.774-.648-1.486a76.488,76.488,0,0,0-.382-7.685c-.229-3.55-1.085-7.079-.666-10.67.021-.179.079-.423-.009-.535-.867-1.105-.6-2.409-.486-3.6.122-1.295-.542-2.383-.586-3.595-.18-4.922.077-9.836-.449-14.777-.487-4.582-.1-9.256-.1-13.89,0-.455-.177-1.025.031-1.343C228.646,347.481,227.942,345.9,228.051,344.347Zm-7.228,62.614c.926-1.021-.375-1.743-.313-2.69.281-4.3-.9-8.541-.518-12.85.04-.45.183-1.028-.027-1.34-.773-1.148-.573-2.408-.477-3.607.1-1.277-.522-2.395-.553-3.592-.084-3.176-.181-6.366.013-9.532.2-3.239-.786-6.36-.616-9.587.139-2.626.036-5.266.021-7.9a1.574,1.574,0,0,0-.761-1.654c.781,2.535-.432,4.46-.34,6.583.083,1.9.055,3.815.007,5.721-.049,1.95.654,3.79.618,5.769-.049,2.735-.4,5.489.415,8.239.4,1.337-.04,2.9.1,4.336.141,1.47-.285,2.908.407,4.457.541,1.212.108,2.858.108,4.311,0,1-.321,2.156.073,2.961.644,1.316.141,2.671.53,3.879a11.438,11.438,0,0,1,.465,4.15C219.929,405.559,220.557,406.168,220.823,406.961ZM427.5,132.019l-.667-.667c.85-.572,1.185-1.922,2.616-1.534a12.273,12.273,0,0,0-.017-1.769c-.107-.676.345-.992.737-1.331.541-.47.841.315,1.3.323q.461-1.591.913-3.16c.6.16.021,1.2,1.267,1.04-.366-1.126,1.278-1.212,1.281-2.434a10.3,10.3,0,0,0-1.048-.783c-.453-.26-.571.616-1.028.414-.224-.325-.024-.767-.418-.957.1.652-1.21,1.105-.237,1.917a16.816,16.816,0,0,1-2.544,2.423,15.064,15.064,0,0,0-2.241,2.326,11.754,11.754,0,0,0-2.441,2.53,27.568,27.568,0,0,1-2.088,2.659,19.335,19.335,0,0,1-1.991,2.39,18.756,18.756,0,0,0-2.017,2.729,28.99,28.99,0,0,0-2.241,3.022c3.662-1.823,5.226-5.282,8.339-6.536.273-.7-.113-1.351.215-1.822Zm40.825,229.094a7.968,7.968,0,0,0,2.042-2.865c1.077-2.724,1.992-5.508,3.155-8.2,1.557-3.611,3.132-7.233,4.354-10.963.642-1.959,1.861-3.962.96-6.361a67.247,67.247,0,0,0-2.977,6.609c-1.11,3.351-2.462,6.59-3.862,9.818a19.071,19.071,0,0,0-1.577,3.952,23.261,23.261,0,0,1-1.446,4.306C468.533,358.548,467.778,359.724,468.328,361.113Zm-158.992,47.2c-.408.673-.8.874-1,1.325a56.661,56.661,0,0,0-2.136,6.746,48.51,48.51,0,0,0-1.614,6.682c-.34,2.3-1.409,4.345-1.873,6.616a51.977,51.977,0,0,0-1.5,8.647c-.057,1.635.885,3.067.6,4.683a1.982,1.982,0,0,0,0,.544c.027.232.013.541.528.318.1-1.866.233-3.786.44-5.688.312-2.863.6-5.7,1.128-8.546a23.836,23.836,0,0,1,.858-3.482c.426-1.228.426-2.508.817-3.744.993-3.139,1.99-6.28,2.819-9.475C308.767,411.558,309.631,410.309,309.336,408.312Z"/></svg>