<?xml version="1.0" encoding="UTF-8"?><svg id="Layer_0_Image" data-name="Layer 0 Image" xmlns="http://www.w3.org/2000/svg" viewBox="0 0 800 600" x="0px" y="0px" width="800px" height="600px" version="1.1" xmlns:xlink="http://www.w3.org/1999/xlink"><title>1</title><path d="M484.62,497.392c-9.007-6.224-14.936-12.524-22.152-14.878-18.366-5.99-18.467-4.9-40.338,2.41q-88.824,29.684-177.857,58.746c-8.635,2.837-17.035,4.828-25.166-2.687-3.942-3.642-9.979-5.016-16.3-8l12.782-11.673-15.951,3.28c1.479-3.669,1.956-6.692,3.666-8.625,2.1-2.372,5-4.865,7.947-5.515,15.447-3.407,18.681-15.015,22.369-28.356,24.078-87.1,48.944-173.991,73.651-260.92,3.771-13.266,8.125-26.366,12.077-39.582,2.438-8.154,7.322-13.3,16.162-13.688,2.085-.092,4.9-.172,6.2,1.023,9.452,8.686,18.239,18.133,28.061,26.356,3.1,2.595,9.091,3.832,13.115,2.9,41.19-9.519,72.732-33.713,97.747-66.829,13.342-17.662,25.321-36.35,38.173-54.391,7.282-10.222,15.908-18.99,28.8-22.027,9.526-2.244,17.452-2.085,22.952,8.547,3.084,5.962,9.846,9.909,14.338,15.277,20.43,24.411,17.386,51.773,9.235,79.505-6.289,21.4-13.276,42.59-19.631,63.969q-22.137,74.48-43.9,149.071c-3.648,12.533-6.725,25.254-9.472,38.017-.87,4.038-.986,9,.59,12.656,4.017,9.339-.939,15.71-5.3,22.9a256.323,256.323,0,0,0-13.913,26.243C497.681,481.688,496.615,494.874,484.62,497.392Zm8.351-267.37c-11.557,5.9-21.272,11.493-31.484,15.948-30.656,13.374-61.463,21.1-92.362.254-5.98-4.035-8.382.42-10.127,5.352-8.331,23.538-17.557,46.8-24.823,70.665-13.163,43.227-25.26,86.78-37.546,130.27-2.106,7.452-2.938,15.263-4.8,25.3,8.784-2.659,15.565-4.722,22.352-6.764,41.726-12.551,83.5-24.944,125.1-37.9,3.846-1.2,9.155-5.772,9.432-9.135,3.835-46.626,15.572-91.6,27.663-136.5C481.433,268.729,487.148,250.117,492.971,230.022ZM418.3,203.557c12.6.877,31.194-10.181,39.478-23.232Z"/></svg>