<?xml version="1.0" encoding="UTF-8"?><svg id="Layer_0_Image" data-name="Layer 0 Image" xmlns="http://www.w3.org/2000/svg" viewBox="0 0 800 600" x="0px" y="0px" width="800px" height="600px" xmlns:xlink="http://www.w3.org/1999/xlink" version="1.1"><title>1</title><path d="M608.367,432.982c-3.324,2.6-4.885,6.377-5.552,10.619-.368,2.339-2.505,2.659-4.112,3.071-1.391.357-2.675.4-3.8,1.551a2.659,2.659,0,0,1-2.525.208c-1.95-1.19-4.038-2.058-5.839-3.643-6.338-5.577-10.984-12.474-15.332-19.511-4.436-7.18-9.079-14.284-12.477-22.071-1.057-2.424-1.1-2.405,1.56-4.287,2.162,4.112,4.179,8.289,6.513,12.279,1.851,3.163,4.092,6.1,6.347,9.411a3.069,3.069,0,0,0-.305-3.376,126.694,126.694,0,0,1-12.124-20.7l1.84-1.2c.15.131.485.42,1.058.914v-2.7l4.947-.983c1.474.689,2.175,3.3,4.6,3.622-.079,2.64,2.228,3.954,3.389,5.884a62.128,62.128,0,0,0,4.768,6.242c1.559-.208,2.725-.425,3.9-.508,4.129-.291,4.03-.159,6.6,2.11,2.857,2.52,4.815,6.045,8.5,7.647a1.007,1.007,0,0,1,.513.715c.115,2.653,1.6,3.616,4.091,4.26,2.088.54,2.682,2.744,2.781,4.911C607.789,429.1,608.094,430.753,608.367,432.982Z"/><path d="M239.773,124.9c2.956,1.48,2.956,1.48,4.547-1.618,2.023-.694,4.466.7,6.294-1.155a58.9,58.9,0,0,0,6.175,1.5c3.371.463,5.113,3.071,7.017,5.267,1.293,1.491,2.645,2.986,3.827,4.606,1.38,1.893,3.032,3.588,4.419,5.478,1.256,1.713,2.331,3.561,3.446,5.375A3.155,3.155,0,0,1,276.16,146a3.927,3.927,0,0,0,1.369,3.367c1.924,1.942,1.775,4.791,2.443,7.213.622,2.26.264,4.837.065,7.252-.076.922-.2,2.889-2.227,1.438-.144-.1-.852.653-1.34.938-.516.3-1.4.875-1.577.715-2.142-1.88-2.664-.536-3.643,1.323-1.441,2.737-2.321,2.535-6.188,1.844-2.354-.421-4.85-.5-6.228-2.537-3.726-5.524-7.544-11.01-8.061-18.068-.207-2.831-1-5.784-3.33-7.818-2.011-1.753-3.346-4.26-6.091-5.237-.827-.294-1.435-1.281-2.077-2.009a8.061,8.061,0,0,1-2.137-5.459C237.1,126.7,238.891,126.188,239.773,124.9Z"/><path d="M555.715,309.507c-2.413-2.413-4.438-4.776-6.8-6.735-6.773-5.619-9.988-13.569-14.039-20.968-1.819-3.325-1.3-7.056-1.22-10.652.013-.623.876-1.228,1.379-1.884.689,1.364,1.333,2.639,2.276,4.5v-6.655c1.416-.7,2.817-1.085,3.773-1.954a3.619,3.619,0,0,1,3.609-.592c1.265.318,2.346,1.374,3.619,2.182-.747,3.493.629,6.418,2.332,9.465,1.523-.413,3.324.67,4.85-.9a1.964,1.964,0,0,1,1.843-.082c3.739,2.25,8.329,3.444,10.218,8.063.34.831.718,1.908,1.4,2.278,1.029.559.1,2.3,1.871,2.367,1.456.056.526,1.539.787,2.346a22,22,0,0,1,.941,3.007,17.59,17.59,0,0,1,.034,2.907,29.73,29.73,0,0,0-7.993,11.855Z"/><path d="M149.733,82.245c.887-1.209,1.58-2.219,2.348-3.169a3.776,3.776,0,0,1,1.113-.813c1.146-.642,1.965,1.172,3.247.382a8.18,8.18,0,0,1,3.326-1.285c.95-.092,2.361,1.055,2.873.687,1.139-.82,1.818-1.068,2.81.042.182.2.857.05,1.278-.051,3.1-.75,3.1-.759,4.766,2.261l.781-2.251a25.216,25.216,0,0,1,1.179,3.278,24.413,24.413,0,0,1,.368,3.74,8.1,8.1,0,0,0,.719,3.818l.471-4.686.5-.022a24.712,24.712,0,0,1,.258,2.491c.027,4.215-.172,8.44.068,12.642a15.618,15.618,0,0,1-2.516,10.122c-.784-.751-1.528-1.888-2.422-.073-.977,1.984-2.542,1.834-4.566.925-.337,2.157-.488,4.7-4.061,3.887v-5.4l-.716-.142c-.565,1.842-1.131,3.684-1.713,5.581-1.6-1.069-2.905-2.206-2.646-4.455.072-.63-.664-1.32-.9-2.025-1.029-3.064-1.012-3.071-3.556-3.144-.486-.014-.973,0-1.459,0h-1.336c-1.234-1.234-2.344-2.419-3.534-3.518-2.532-2.341-3.338-5.438-3.743-8.658-.2-1.6.144-3.264-.083-4.852-.249-1.751.653-3.047,1.449-4.279C145.627,80.815,146.492,80.744,149.733,82.245Z"/><path d="M434,120.826c-2.079,1.411-4.081,2.826-6.167,4.1-.2.123-.928-.611-1.71-1.158a17.815,17.815,0,0,1-1.312,2.291,28.429,28.429,0,0,1-2.042,2.083c-1.372,1.414-2.7,2.988-4.725.841-.154-.163-.626,0-.946-.035-2.28-.247-4.452.321-6.744-1.513-1.846-1.477-4.2-2.5-5.933-4.311a24.706,24.706,0,0,1-4.444-5.456c-1.743-3.316-3.461-6.594-2.841-10.486a14.592,14.592,0,0,1,1.432-3.179l3.024,2.479c.794-2.632.63-5.692,3.071-8.011l3.033,2.265V97.184c3.2-.548,6.112-1.648,9.323-1.455a7.085,7.085,0,0,1,4.6,1.81c1.5,1.434,3.333,2.46,4.555,4.3,1.1,1.662,2.615,3.052,3.774,4.765,1.9,2.814,2.547,6.106,3.94,9.1C434.554,117.131,434,119.126,434,120.826Z"/><path d="M227.559,214.016v10.459c.971-2.643.8-5.314.885-7.97.033-1.069-.473-2.4.822-3.037a14.647,14.647,0,0,1,4.2-1.528c.5-.073,1.442,1.1,1.725,1.874a9.071,9.071,0,0,1,.069,2.894c.808-.338,1.289-.728,1.72-.679.89.1,2.113.923,2.567.589,2.534-1.863,5.31-.639,7.929-.784a4.526,4.526,0,0,1,3.545,1.686c1.4,2.368,4.208,3.092,5.683,5.879a6.792,6.792,0,0,0,1.443,4.246c1.62,2.074,3,4.651,2.5,7.69a30.081,30.081,0,0,0-.04,4.614c-3.322,1.971-6.78,3.887-10.094,6.026-3.466,2.237-6.623.733-9.573-.813-2.153-1.128-5.044-1.658-5.771-4.666-4.816-2.167-5.671-7.242-8.242-11.076-1.728-2.577-1.676-5.577-2.166-8.3-.4-2.253,1.188-4.865,1.9-7.318Z"/><path d="M321.879,266.761l-6.676-6.676a39.163,39.163,0,0,1,.087-5.429c.095-.7,1.1-1.4,1.851-1.811.284-.156,1.015.5,1.548.8.708-1.4,1.122-3.3,3.515-2.836a1.923,1.923,0,0,0,1.379-.132c1.194-.963,2.491-1.949,4.016-1.524,2.734.76,5.778,1.205,7.909,3.091,4.212,3.73,8.215,7.783,10.312,13.17a53.72,53.72,0,0,1,2.981,9.906A4.717,4.717,0,0,1,346.984,280c-2.77,1.939-5.435,4.034-8.264,5.878a5.9,5.9,0,0,1-3.446.964c-7.084-.613-12.132-3.946-14.224-11.947-.305-1.166-1.038-2.379-.88-3.469A22.881,22.881,0,0,1,321.879,266.761Z"/><path d="M334.032,442.873l-.578-2.932c-.013,3.879-4.107,5.33-5,8.628a1.935,1.935,0,0,1-2.787,1.051c-1.177-1.066-1.98-.289-2.644.143a4.3,4.3,0,0,1-5.074-.014c-5.2-3.043-10.571-5.838-13.639-11.415-3.7-2-4.777-6.062-7.075-9.15-1.117-1.5-1.472-3.571-2.251-5.586,1.357-1.979,3.331-1.455,5.717-.265-.231-1.124-.167-2.159-.64-2.8-.651-.877.045-1.223.416-1.378,1.68-.7,3.416-1.217,4.8-2.545.337-.324,1.293-.195,1.887-.016,1.061.321,1.969,1,3.147.041.333-.27,1.42.269,2.1.569,5.868,2.579,11.179,5.809,14.653,11.529a14.066,14.066,0,0,0,2.312,2.325c2.261,2.1,2.685,5.161,4.434,7.426C334.977,439.993,334.722,441.317,334.032,442.873Z"/><path d="M629.921,215.6l.4-2.789c.356.255.67.359.751.557,1.25,3.057,2.807,5.986,3.541,9.254.462,2.057,1.05,4.025-.94,5.627-1.354,1.089.02,4.221-3.027,4.046-1.437,2.308-3.739,2.078-5.943,1.919a34,34,0,0,1-1.454,4.392c-.731,1.512-3.067,1.94-5.572,1.225-.571-.164-1.124-.718-1.648-.672-4.055.353-4.048.383-5.756-2.816a48.141,48.141,0,0,1-2.543-4.791,7.065,7.065,0,0,0-4.113-4.191,9.267,9.267,0,0,1-5.566-7.106c-.477-2.852.858-5.469,3.405-7.526,1.262,1.648,2.52,3.292,4.284,5.594,0-2.356-.026-3.941.007-5.525s.2-1.253,2.7-2.376c1.778-.8,4.359.171,5.383-2.3q2.637-.1,5.274-.2c3.248-.128,6.129.226,7.643,3.836C627.343,213.192,628.783,214.271,629.921,215.6Z"/><path d="M149.344,239.288a6.71,6.71,0,0,1-5.548-5.956c-.449-3.066-1.487-6.07-1.238-9.312a84.187,84.187,0,0,0-.016-12.645c-.152-2.037,1.153-3.544,1.124-5.446-.008-.5.681-1.453,1.006-1.434,2.509.144,3.7-2.574,6.333-2.59,1.742-.01,3.475-1.644,5.432-2.665,1.927,1.927,6.026-.456,7.588,3.793-1.024,2.985,1.525,5.606,2.387,8.666.12.426.568.807.572,1.212.041,4.815.026,9.631.026,14.863l-1.957-1.735c.262,1.131.213,2,.6,2.292.412.315,1.278-.035,1.861.16.264.088.405.786.435,1.219.013.2-.416.636-.574.6-1.18-.231-2.343-.552-3.618-.872-.871,1.884-1.8,3.895-2.494,5.4l-2.914-.219c1.39,1.4-.206,1.906-.784,2.767a30.517,30.517,0,0,0-1.486,2.725c-3.066-.333-4.21-2.31-5.03-4.929Z"/><path d="M508.168,463.455c-2.523-.071-4.908-.752-6.128,2.043-2.057-2.712-2.3-4.638-.205-6.794,1.447-1.488,2.4-3.344,4.246-4.629,1.616-1.127,2.209-3.616,3.6-5.2,1.07-1.219,2.675-1.969,4.041-2.928l1.617,1.586-2.29,1.626.254.585,3.472-.547c.331.5.717,1.777,1.545,2.209,4.972,2.587,8.144,6.907,11.164,11.342.992,1.456,1.334,3.338,2.13,4.947,1.969,3.981,2.476,4.716,1.878,8.334-.432,2.614-.911,5.4-2.965,7.533a5.553,5.553,0,0,0-1.719,3.131c-.107,2.716-1.6,3.151-3.794,3.01a5.874,5.874,0,0,0-1.859.2c-3.829,1.03-4.224.924-6.133-2.011-2.828-4.346-4.179-9.314-5.823-14.144C510.035,470.334,509.15,466.827,508.168,463.455Z"/><path d="M446.181,409.976c-2.707-1.538-5.45-2.882-7.657-5.109-4.114-4.153-8.529-8.045-12.323-12.47-3.989-4.654-8.213-9.24-10.62-14.694.255-2.154,3.059.133,3.114-2.407.015-.726,1.794-1.427,2.781-2.115,2.449-1.708,3.815-2,5.6-.1a10.715,10.715,0,0,0,6.1,3.035c3.56.755,6.016,3.487,9.062,5.168,3.258,1.8,5.579,4.7,8.227,7.209,1.37,1.3,3.073,2.3,4.252,3.742a12.97,12.97,0,0,1,2.693,4.974c.255,1.086-.561,2.723-1.39,3.689-1.024,1.192-1.509,2.914-3.3,3.491-1.036.334-.89,1.492-1.091,2.445-.233,1.1-.539,2.429-2.44,1.054C447.856,406.93,446.737,408.293,446.181,409.976Z"/><path d="M642.428,381.782c-5.555-2.287-7.943-6.541-10.317-10.675a89.028,89.028,0,0,1-5.538-11.309c-1.548-3.886-4.245-7.568-3.042-12.459,3.514,2.448,3.224,7.13,6.6,10.259-.618-4.95-3.186-8.775-4.468-13.992l3.2,1.756c.152-.849.311-1.739.469-2.626l4.631-.879c.453.726,1.049,1.8,1.757,2.792,2.76,3.867,2.776,3.849,7.787,5.63a8.283,8.283,0,0,1,1.592.847c3.881,2.452,7.415,5.216,9.551,9.479a16.62,16.62,0,0,1,1.819,6.151,2.063,2.063,0,0,0,.6,1.187,1.177,1.177,0,0,1-.356,1.992c-2.19,1.237-3.138,3.666-5.082,5.121a3.275,3.275,0,0,0-1.13,2.47c-.206,1.395-2.941,3.2-4.214,2.908-.787-.182-1.3-1.63-2.372-.562A18.718,18.718,0,0,0,642.428,381.782Z"/><path d="M484.57,268.182l-2.974.492,1.2,2.238-7.209,7.21a7.208,7.208,0,0,0-1.351.011c-5.467,1.012-9.109-2.092-12.146-5.833a44.2,44.2,0,0,1-6-9.653c-.99-2.193-1.875-4.213-1.167-7.192,1.659,3.646,3.136,6.892,4.614,10.138l.79-.254a9.332,9.332,0,0,0-.376-1.851c-.989-2.349-2.113-4.643-3.044-7.013-.413-1.049-1.3-2.354.955-2.841.7-.151,1.1-1.652,1.634-2.54.465-.779.916-1.566,1.285-2.2,2.278-.209,2.3,1.784,3.721,2.6l-1.1-4.16,2.678-2.123c.614.611,1.429,1.584,2.187-.211.82-1.942,2.031-2.7,4-1.423.179.116.549.2.667.108,2.275-1.873,3.614-.006,4.667,1.428,2.514,3.426,3.7,7.54,5.2,11.454.353.919,1.124,3.077-1.468,3.18-.145.006-.258.812-.386,1.245.54.13,1.369.547,1.574.342a1.147,1.147,0,0,1,2.094.779C483.739,264.175,485.765,266.159,484.57,268.182Z"/><path d="M466.919,164.163l2.015,2.016c.16-1.379.293-2.517.436-3.757,2.006-.42,4.074-.95,6.176-1.26a13.127,13.127,0,0,1,3.873.013c.967.149.208,1.948,2.008,2.106,1.163.1,2.057,2.079,2.885,3.454.673,1.119-.334,3.536,2.219,3.391q.132,2.373.265,4.748c.009.153.043.305.066.458l7.245,7.244a15.038,15.038,0,0,1,2.381.024c1.209.193,2.513,1.392,1.892,2.136-1.379,1.653,1.1,2.8.113,4.145-3.77,1.131-4.958,1.255-8.024.719.767,1.661,1.436,3.109,2.277,4.928-.491.471-1.135,1.616-1.772,1.611-4.016-.029-8.244.989-11.824-1.862a17.09,17.09,0,0,1-2.9-2.324c-1.721-2.156-3.263-4.457-4.833-6.73-.775-1.122-1.435-2.322-2.179-3.466-1.151-1.773-.81-4.323-2.921-5.592.319-2.147-.892-3.773-1.666-5.625A4.675,4.675,0,0,1,466.919,164.163Z"/><path d="M316.478,91.906c1.9,0,3.2,0,4.5,0,1.74,0,3.621-.289,4.02,2.224a1.231,1.231,0,0,0,1,.662c2.061-.305,2.6,1.641,3.855,2.5,3.419,2.325,3.923,6.15,4.778,9.69.488,2.017-.165,3.465-2.461,4.84-2.578,1.544-5.8,2.5-7.573,5.3-1.562.03-2.842,2.473-4.666.518a1.887,1.887,0,0,0-1.285-.37c-6.153.118-10-3.414-13.218-8.123-1.631-2.389-3.675-4.524-4.314-7.463a25.987,25.987,0,0,1-.5-3.677c-.029-.4.209-1.1.491-1.2,2.476-.885,4.275-2.995,6.675-3.854A19.313,19.313,0,0,1,316.478,91.906Z"/><path d="M308.663,328.356c.713,1.122,1.237,1.947,2.256,3.549.228-1.7.317-2.277.382-2.86.214-1.932.211-1.93,2.652-2.178.306-.031.776.009.885-.163a3.852,3.852,0,0,1,4.609-1.719,15.994,15.994,0,0,1,5.673,2.655c6.04,5.09,9.592,11.913,12.351,19.152.471,1.234.067,2.8.067,4.194l-1.861-.206c.122,1.748-.273,3.042-2.317,3.457a2.4,2.4,0,0,0-1.512,1.657c-.206,2.105-2.368,1.079-3.123,2.174-1.205-1.917-3.278.4-4.633-.966-1.3-1.313-3.075-2.325-3.932-3.865a54.143,54.143,0,0,1-4.805-10.622,6.314,6.314,0,0,0-2.861-4,12.606,12.606,0,0,1-5.355-5.652C306.175,330.868,306.134,330.887,308.663,328.356Z"/><path d="M400.024,271.661a6.767,6.767,0,0,1,.04-1.762c.1-.4.8-.679.859-1.069.065-.421-.431-.908-.436-1.37,0-.409.571-.912.459-1.214a3.664,3.664,0,0,0-1.141-1.456,4.592,4.592,0,0,0-1.485-.436c.305,1.056.55,1.908.8,2.759-1.72-1.049-3.633-1.885-2.791-4.415l2.276.978c.279-3.044-2.542-1.459-3.629-2.9,1.591.188,2.65-.908,4.25-.695.742.1,1.708-1.478,2.844-2.553l5.417,4.419c.2-1.235.347-2.114.522-3.185l7.164-1.383c1.246,1.592,2.22,3.043,3.408,4.291,1.028,1.081,2.444,1.8,3.436,2.907,2.8,3.123,4.069,7.069,5.22,10.971.412,1.395.866,3.6-1.8,3.978.011,2.563-2.691,2.946-3.911,4.571-1.527,2.034-4.23,2.384-7.147,1.207-4.368-1.765-7.24-5.175-10.029-8.5C402.948,275.144,401.38,273.573,400.024,271.661Z"/><path d="M480.357,334.876l2.415.823c.179-4.1-4.06-5.25-4.649-9.026a10.167,10.167,0,0,1,2.062.943,34.021,34.021,0,0,1,2.507,2.463,6.24,6.24,0,0,0-1.747-3.935c2.563-3.1,2.563-3.1,5.589-3.109,1.664,1.875,3.084,4.344,5.217,5.646,2.354,1.438,3.048,3.894,4.784,5.656a24.343,24.343,0,0,1,3.859,6.133,6.989,6.989,0,0,1,.92,3.927c-.25,1.567-.918,3.871-2.026,4.317-1.825.734-1.416,2.023-1.991,3.131-.786,1.514-1.862,2.987-3.836,3.312-1.152.19-2.524,1.07-3.369.689a17.853,17.853,0,0,1-5.7-3.731,98.027,98.027,0,0,1-7.893-9.835c-.616-.855-.333-2.357-.515-4.046l1.834,1.478C477.456,337.227,479.629,336.374,480.357,334.876Z"/><path d="M454.729,513.656l-2.6-1.426c-1.1,3.958-1.367,4.164-4.6,2.738l2.286,5.31-2.585,1.5-4.935-4.936c-1.054,2.376,1.848,3.473,1.561,5.766-2.6.363-4.114-1.408-5.613-3.038-.818-.89-1.262-2.133-2.106-2.99a107.717,107.717,0,0,1-10.289-12.27,8.208,8.208,0,0,0-1.024-1.036c-1.9-1.81-3.887-3.561-4.028-6.512,1.894-1.16,2.9.629,4.19,1.734,1.311-2.169-1.721-2.458-1.586-4.055.116-1.927,3.783.531,2.851-2.619h5.279c1.51,1.064,3.041,2.116,4.543,3.208s2.5,2.67,4.347,3.564c1.79.867,2.978,2.916,4.555,4.306,1.028.905,1.679,2.15,3.323,2.557,1.189.3,1.822,2.1,3.628,1.865.5-.065,1.408.842,1.664,1.487A36.737,36.737,0,0,1,454.729,513.656Z"/><path d="M421.235,187.633c1.677.112,2.835-.757,4.368.351l-1.961.675c.576,1.954,1.217,3.9,1.686,5.876.121.508-.145,1.51-.5,1.659-1.957.826-2.547,2.929-4.07,4.082a5.36,5.36,0,0,1-2.565.777c-.441.049-.962-.619-1.4-.572a4.979,4.979,0,0,0-1.6.85c-.835-2.956-.794-3.077-4.087-4.2-1.971-.671-2.38-2.61-3.778-3.828-.313.667-.616,1.31-.955,2.033-.49-.516-1.318-.984-1.316-1.448.026-5.807.021-5.939-2.631-9.418-1.5,2.625,1.368,4.144,1.524,6.713-.71-.11-1.769-.028-1.893-.331-1.246-3.028-3.143-5.886-1.2-9.519.605-1.129.713-1.72,2.069-1.742a5.228,5.228,0,0,0,2.482-.977c1.931-1.221,3.792-2.551,5.856-3.956l.8,1.2c1.63,1.134,3.328-1.921,3.6,1.265.078.905,2.1-1.252,2.1,1.115,0,.916,1.683,1.833,2.528,2.677-.3.784-.589,1.531-.875,2.277q.359.251.719.5c.424-.806.849-1.612,1.382-2.626.872,1.481,1.377,2.337,2.04,3.462C422.843,185.486,422.039,186.56,421.235,187.633Z"/><path d="M257.384,333.236l-3-3.783-1.238,2.53a10.929,10.929,0,0,1-4.21-3.844c-2.376-3.348-4.21-7.042-6.616-10.394-1.48-2.062-1.568-4.651-.983-7.331,2.221-.451,2.7,2.159,4.554,2.819v-4.746l9.965-1.4a26.168,26.168,0,0,1,6.895,9.7c.863,2.071,2.646,3.627,3.187,6,.214.937-.986,2.2.491,2.894a11.56,11.56,0,0,1-.453,1.146c-2.413-.87-3.224,2.63-5.546,2.068-.15-.036-.562.861-.793,1.351a15.373,15.373,0,0,1-.683,1.656A9.1,9.1,0,0,1,257.384,333.236Z"/><path d="M365.352,392.191l1.93,4.461.9-2.373c.218.134.575.227.622.4a9.8,9.8,0,0,0,2.44,4.368,11.636,11.636,0,0,1,1.735,2.68,5.489,5.489,0,0,0,4.09,3.16c.312-.634.634-1.288.783-1.592l2.674,2c0,.607.064.869-.01.917-.882.574-1.785,1.115-2.609,1.62.238,1.33.454,2.538.776,4.344l-3.41-1.66c-.638,1.284-1.278,2.573-1.966,3.96l-2.359.269v2.166c-2.448,1.835-4.453,1.588-6.576-.348-2.313-2.109-4.92-3.892-7.28-6.4l3-1.983a14.681,14.681,0,0,0-2.889-5.436c-1.39-1.718-2.149-3.945-3.149-5.879,1.428-1.761,2.556-.457,3.866.093.056-.492.283-1.016.127-1.369-.977-2.2-.555-3.285,1.517-3.381C361.509,392.12,363.462,392.191,365.352,392.191Z"/><path d="M226.616,411.466l2.317,3.428c.216-.675.514-1.108.445-1.471-.332-1.76-.763-3.5-1.213-5.488H231c.245.511.544,1.133,1.139,2.369v-3.983a5.519,5.519,0,0,0,1.355-.5c.756-.563,1.954-1.842,2.077-1.741,1.24,1.02,2.77.4,3.972.864,1.79.687,3.49,1.885,3.468,4.17-.006.683-.912,1.441-.776,2.016.111.467,1.362.57,1.736,1.1a1.925,1.925,0,0,1,.015,1.838c-1.263,1.007-.985,2.312-.9,3.535a2.457,2.457,0,0,1-1.914,2.839c-1.449.411-1.787,1.338-2.091,2.723a3.706,3.706,0,0,1-4.042,3.163,9.32,9.32,0,0,0-2.361.152c-1.936.424-4.377-.041-4.982-1.464-1.474-3.466-3.608-6.744-3.211-10.824C224.639,412.6,225.6,412.148,226.616,411.466Z"/><path d="M382.939,323.768l4.033,1.181c.659-1.57.854-3.078-.537-4.482,1.708-1.553,2.845.789,4.52.534l.484-2.608c1.312-1.4,2.5,1.187,4.08-.036,1.622-1.25,2.031,1.449,3.408,1.759a4.453,4.453,0,0,1,2.051,1.66c1.83,2.245,2.116,5.421,4.581,7.38.591.47.275,2.08.408,3.511-2.734-1.342-2.9,2.994-5.532,1.967-.809,1.31-.046,3.686-3.007,3.97l-1.5-2.559c-.592,1.24-.879,1.84-1.175,2.459-1.66.392-2.419-1.037-2.963-1.947a20.221,20.221,0,0,0-7.189-7.16C382.733,328.282,381.71,326.465,382.939,323.768Z"/><path d="M359.222,194.258l-6.187,4.849h-4.094c-1.594-2.305-2.113-5.339-4.463-7.242-.246-3.21-2.467-5.2-4.395-7.438-.614-.712-.481-2.067-.742-3.394.7-.2,1.4-.182,1.765-.523,3.742-3.5,7.265-1.532,10.248.855a32.083,32.083,0,0,1,6.5,7.471C358.873,190.389,358.846,192.631,359.222,194.258Z"/></svg>